<svg width="451" height="451" viewBox="0 0 451 451" fill="none" xmlns="http://www.w3.org/2000/svg">
<path d="M0.969971 135.374C0.969971 170.285 14.4754 202.088 36.6174 225.982C14.4754 249.876 0.969971 281.678 0.969971 316.59C0.969971 390.813 62.0138 450.982 137.315 450.982C171.164 450.982 202.132 438.824 225.97 418.696C249.808 438.824 280.776 450.982 314.625 450.982C389.926 450.982 450.97 390.813 450.97 316.59C450.97 281.678 437.465 249.876 415.323 225.982C437.465 202.088 450.97 170.285 450.97 135.374C450.97 61.1511 389.926 0.981812 314.625 0.981812C280.776 0.981812 249.808 13.1399 225.97 33.2672C202.132 13.1399 171.164 0.981812 137.315 0.981812C62.0138 0.981812 0.969971 61.1511 0.969971 135.374Z" fill="#F24E1E"/>
</svg>
