<svg width="450" height="450" viewBox="0 0 450 450" fill="none" xmlns="http://www.w3.org/2000/svg">
<path fill-rule="evenodd" clip-rule="evenodd" d="M104.464 208.929C105.001 208.929 105.537 208.925 106.071 208.916V208.929C114.947 208.929 122.143 216.124 122.143 225C122.143 233.876 114.947 241.071 106.071 241.071V241.084C105.537 241.075 105.001 241.071 104.464 241.071C46.7703 241.071 0 287.842 0 345.536C0 403.23 46.7703 450 104.464 450C162.158 450 208.929 403.23 208.929 345.536C208.929 336.66 216.124 329.464 225 329.464C233.876 329.464 241.071 336.66 241.071 345.536C241.071 403.23 287.842 450 345.536 450C403.23 450 450 403.23 450 345.536C450 288.378 404.096 241.942 347.143 241.084V240.992C346.614 241.045 346.078 241.071 345.536 241.071C336.66 241.071 329.464 233.876 329.464 225C329.464 216.124 336.66 208.929 345.536 208.929C346.078 208.929 346.614 208.955 347.143 209.008V208.916C404.096 208.058 450 161.622 450 104.464C450 46.7703 403.23 0 345.536 0C288.378 0 241.942 45.9042 241.084 102.857H240.992C241.045 103.386 241.071 103.922 241.071 104.464C241.071 113.34 233.876 120.536 225 120.536C216.124 120.536 208.929 113.34 208.929 104.464C208.929 103.922 208.955 103.386 209.008 102.857H208.916C208.058 45.9042 161.622 0 104.464 0C46.7703 0 0 46.7703 0 104.464C0 162.158 46.7703 208.929 104.464 208.929Z" fill="#FF8577"/>
</svg>
