<svg width="515" height="515" viewBox="0 0 515 515" fill="none" xmlns="http://www.w3.org/2000/svg">
<path d="M12.5077 257.5C12.5077 392.805 122.194 502.492 257.499 502.492C392.804 502.492 502.491 392.805 502.49 257.5C502.49 122.195 392.804 12.5089 257.499 12.5089C122.194 12.5089 12.5077 122.195 12.5077 257.5Z" fill="#FFC700"/>
<path fill-rule="evenodd" clip-rule="evenodd" d="M257.5 0.783803C115.718 0.783803 0.781625 115.721 0.781622 257.502C0.781619 399.284 115.718 514.22 257.5 514.22C399.281 514.22 514.218 399.284 514.218 257.502C514.218 115.721 399.282 0.783803 257.5 0.783803ZM257.5 502.494C122.195 502.494 12.5085 392.807 12.5085 257.502C12.5085 122.197 122.195 12.5107 257.5 12.5107C392.805 12.5107 502.491 122.197 502.491 257.502C502.491 392.807 392.805 502.494 257.5 502.494Z" fill="black"/>
<path d="M171.709 219.764C176.935 233.201 170.279 248.331 156.841 253.556C143.404 258.782 128.274 252.126 123.048 238.688C117.823 225.251 124.479 210.122 137.917 204.896C151.354 199.67 166.483 206.326 171.709 219.764Z" fill="black"/>
<path d="M343.901 152.796C349.127 166.233 342.47 181.362 329.033 186.588C315.595 191.814 300.466 185.157 295.24 171.72C290.014 158.283 296.671 143.153 310.108 137.927C323.545 132.701 338.675 139.358 343.901 152.796Z" fill="black"/>
<path fill-rule="evenodd" clip-rule="evenodd" d="M101.756 311.784L103.881 317.249C136.877 402.09 232.402 444.119 317.244 411.124C402.085 378.128 444.114 282.603 411.119 197.762L408.994 192.297L419.923 188.046L422.048 193.511C457.391 284.389 412.372 386.71 321.494 422.053C230.617 457.396 128.295 412.377 92.9517 321.499L90.8264 316.034L101.756 311.784Z" fill="black"/>
</svg>
