<svg width="472" height="551" viewBox="0 0 472 551" fill="none" xmlns="http://www.w3.org/2000/svg">
<path d="M392.104 148.346C441.098 132.813 472 110.088 472 84.7692C472 37.9525 366.339 0 236 0C105.661 0 0 37.9525 0 84.7692C0 110.088 30.9015 132.813 79.8964 148.346C30.9015 163.879 0 186.605 0 211.923C0 237.241 30.9015 259.967 79.8964 275.5C30.9015 291.033 0 313.759 0 339.077C0 364.395 30.9015 387.121 79.8964 402.654C30.9015 418.187 0 440.912 0 466.231C0 513.048 105.661 551 236 551C366.339 551 472 513.048 472 466.231C472 440.912 441.098 418.187 392.104 402.654C441.098 387.121 472 364.395 472 339.077C472 313.759 441.098 291.033 392.104 275.5C441.098 259.967 472 237.241 472 211.923C472 186.605 441.098 163.879 392.104 148.346Z" fill="#A259FF"/>
</svg>
